#!OML:ASF H:\ManfredETheater\Project 1\Capture day 1\Session 1\subject.ASF
:FULLY-SPECIFIED
:DEGREES
228
root 21.101 17.6027 -41.1178 -180.677 22.5334 -172.334
lowerback 6.61696 0.902142 4.06907
upperback -2.05464 1.86426 3.07161
thorax -5.84283 0.884654 0.699371
lowerneck -17.3935 -0.476444 -0.669082
upperneck 23.1525 1.01322 -3.46119
head 10.3013 0.218879 -0.93302
rclavicle -1.64494e-014 -6.16232e-015
rhumerus -26.066 8.81381 -77.0891
rradius 94.1816
rwrist -8.23892
rhand -28.2133 6.34062
rfingers 7.12502
rthumb -1.59193 -23.6332
lclavicle -1.64494e-014 -6.16232e-015
lhumerus -48.4687 30.2633 56.144
lradius 25.5434
lwrist -17.5991
lhand -20.5399 14.5509
lfingers 7.12502
lthumb 5.81855 44.451
rfemur -9.11636 -8.71736 27.7774
rtibia 37.2875
rfoot -13.8281 -24.1528
rtoes -23.1696
lfemur -29.2689 -4.48719 -15.6251
ltibia 42.3005
lfoot -10.3606 7.05198
ltoes 3.18091
229
root 21.1546 17.5963 -41.2281 -180.64 22.3709 -172.353
lowerback 6.59844 0.995581 4.01266
upperback -2.03914 1.97673 3.03196
thorax -5.81409 0.940648 0.677201
lowerneck -17.2961 -0.235245 -0.428256
upperneck 23.2295 1.37258 -3.7068
head 10.3202 0.38507 -1.00966
rclavicle 5.14231e-014 3.24019e-014
rhumerus -25.5773 9.17106 -76.6942
rradius 94.2393
rwrist -8.13649
rhand -28.1922 6.33444
rfingers 7.12502
rthumb -1.57156 -23.6395
lclavicle 5.14231e-014 3.24019e-014
lhumerus -49.4523 31.1044 54.1684
lradius 25.4531
lwrist -16.8277
lhand -20.925 15.2354
lfingers 7.12502
lthumb 5.44672 45.1454
rfemur -8.8638 -8.98819 27.7201
rtibia 37.5823
rfoot -14.1408 -24.2014
rtoes -23.5448
lfemur -29.2021 -3.85849 -15.7584
ltibia 42.1477
lfoot -9.26158 6.93045
ltoes 5.03673
230
root 21.2065 17.5854 -41.3376 -180.656 22.1678 -172.382
lowerback 6.59934 1.07497 3.95474
upperback -1.9985 2.06997 2.99194
thorax -5.77029 0.987468 0.65751
lowerneck -17.2664 0.0182479 -0.114937
upperneck 23.3869 1.76555 -4.04715
head 10.3856 0.562382 -1.12805
rclavicle -2.48481e-016 2.25621e-014
rhumerus -25.0987 9.50125 -76.2994
rradius 94.2783
rwrist -8.05848
rhand -28.1731 6.35691
rfingers 7.12502
rthumb -1.55312 -23.6172
lclavicle -2.48481e-016 2.25621e-014
lhumerus -50.3233 31.7606 52.3853
lradius 25.3847
lwrist -16.1662
lhand -21.2303 15.7391
lfingers 7.12502
lthumb 5.15201 45.6565
rfemur -8.61808 -9.28409 27.6306
rtibia 37.9998
rfoot -14.4528 -24.2394
rtoes -23.9664
lfemur -29.0723 -3.22272 -15.9197
ltibia 42.2459
lfoot -8.43422 6.45734
ltoes 6.86227
231
root 21.2573 17.571 -41.4452 -180.731 21.906 -172.452
lowerback 6.62143 1.14449 3.85963
upperback -1.92568 2.14377 2.93466
thorax -5.70547 1.02545 0.642669
lowerneck -17.3179 0.280729 0.256268
upperneck 23.6039 2.17466 -4.43115
head 10.493 0.746042 -1.27005
rclavicle 4.35835e-014 3.07122e-014
rhumerus -24.6161 9.75605 -75.9187
rradius 94.3032
rwrist -7.97671
rhand -28.1496 6.38005
rfingers 7.12502
rthumb -1.53042 -23.5942
lclavicle 4.35835e-014 3.07122e-014
lhumerus -51.0171 32.257 50.8181
lradius 25.3154
lwrist -15.6646
lhand -21.4241 16.1205
lfingers 7.12502
lthumb 4.96486 46.0423
rfemur -8.39356 -9.60399 27.4802
rtibia 38.5401
rfoot -14.7469 -24.2776
rtoes -24.4452
lfemur -28.8983 -2.6526 -16.1247
ltibia 42.5273
lfoot -7.936 5.77493
ltoes 8.46287
232
root 21.3075 17.5547 -41.5506 -180.882 21.5787 -172.607
lowerback 6.6779 1.20678 3.68193
upperback -1.83136 2.1978 2.85159
thorax -5.63965 1.05509 0.648807
lowerneck -17.4351 0.540166 0.664805
upperneck 23.8917 2.59098 -4.8551
head 10.6443 0.931171 -1.43212
rclavicle 3.14328e-015 -2.20154e-014
rhumerus -24.1523 9.92263 -75.563
rradius 94.3017
rwrist -7.87542
rhand -28.1232 6.4151
rfingers 7.12502
rthumb -1.50491 -23.5593
lclavicle 3.14328e-015 -2.20154e-014
lhumerus -51.5413 32.6097 49.4682
lradius 25.239
lwrist -15.3198
lhand -21.5413 16.3634
lfingers 7.12502
lthumb 4.85172 46.2879
rfemur -8.18569 -9.94601 27.2293
rtibia 39.1992
rfoot -15.0149 -24.3183
rtoes -24.9577
lfemur -28.6813 -2.19032 -16.4075
ltibia 42.9217
lfoot -7.72765 4.99844
ltoes 9.70118
233
root 21.3576 17.5379 -41.6535 -181.116 21.1798 -172.871
lowerback 6.76504 1.26791 3.40105
upperback -1.71446 2.23694 2.73236
thorax -5.56997 1.07898 0.676252
lowerneck -17.5782 0.792348 1.09512
upperneck 24.2173 3.00284 -5.29126
head 10.8201 1.11476 -1.60333
rclavicle 3.45885e-014 2.47735e-014
rhumerus -23.7154 9.9778 -75.2411
rradius 94.2603
rwrist -7.74616
rhand -28.1019 6.46491
rfingers 7.12502
rthumb -1.48436 -23.5097
lclavicle 3.45885e-014 2.47735e-014
lhumerus -51.8824 32.8544 48.3223
lradius 25.138
lwrist -15.1901
lhand -21.5627 16.5051
lfingers 7.12502
lthumb 4.83101 46.4301
rfemur -7.99396 -10.3115 26.8534
rtibia 39.9746
rfoot -15.215 -24.3693
rtoes -25.5581
lfemur -28.4163 -1.86438 -16.7897
ltibia 43.3577
lfoot -7.77972 4.23293
ltoes 10.5727
234
root 21.4081 17.5218 -41.7532 -181.412 20.7276 -173.221
lowerback 6.90336 1.32779 3.02253
upperback -1.59596 2.26527 2.58862
thorax -5.53068 1.09897 0.732899
lowerneck -17.7217 1.03667 1.51824
upperneck 24.5742 3.41218 -5.71575
head 11.0124 1.29876 -1.7699
rclavicle -1.75482e-014 1.78906e-014
rhumerus -23.342 9.93948 -74.9705
rradius 94.1848
rwrist -7.57834
rhand -28.0794 6.52357
rfingers 7.12502
rthumb -1.46256 -23.4512
lclavicle -1.75482e-014 1.78906e-014
lhumerus -52.0823 33.0167 47.3439
lradius 25.0012
lwrist -15.275
lhand -21.5271 16.5388
lfingers 7.12502
lthumb 4.86544 46.463
rfemur -7.83231 -10.6684 26.3893
rtibia 40.855
rfoot -15.3411 -24.4452
rtoes -26.219
lfemur -28.117 -1.67108 -17.2419
ltibia 43.7783
lfoot -8.01723 3.56882
ltoes 11.0431
235
root 21.4587 17.5077 -41.8505 -181.759 20.2242 -173.67
lowerback 7.07481 1.39016 2.55246
upperback -1.48997 2.2867 2.41116
thorax -5.5258 1.11659 0.805687
lowerneck -17.7905 1.26682 1.88741
upperneck 24.9259 3.80897 -6.0799
head 11.1908 1.48232 -1.90733
rclavicle -7.48424e-014 -2.20527e-014
rhumerus -23.072 9.80275 -74.7656
rradius 94.0726
rwrist -7.36372
rhand -28.0661 6.59396
rfingers 7.12502
rthumb -1.44972 -23.3809
lclavicle -7.48424e-014 -2.20527e-014
lhumerus -52.1678 33.1115 46.5016
lradius 24.8249
lwrist -15.5772
lhand -21.4518 16.482
lfingers 7.12502
lthumb 4.93815 46.4045
rfemur -7.7073 -11.0246 25.8201
rtibia 41.8238
rfoot -15.3948 -24.5336
rtoes -26.8791
lfemur -27.7884 -1.59145 -17.7878
ltibia 44.1421
lfoot -8.37002 2.99538
ltoes 11.0874
236
root 21.5092 17.4963 -41.9463 -182.127 19.6929 -174.176
lowerback 7.24733 1.45763 2.03395
upperback -1.38676 2.30829 2.21309
thorax -5.52594 1.13522 0.884235
lowerneck -17.7839 1.49191 2.18553
upperneck 25.2558 4.20352 -6.36444
head 11.3471 1.67075 -2.00369
rclavicle 6.89224e-014 5.81445e-015
rhumerus -22.8859 9.5724 -74.632
rradius 93.908
rwrist -7.0958
rhand -28.0657 6.67118
rfingers 7.12502
rthumb -1.4494 -23.3036
lclavicle 6.89224e-014 5.81445e-015
lhumerus -52.1461 33.1895 45.7791
lradius 24.6205
lwrist -16.0967
lhand -21.3402 16.3687
lfingers 7.12502
lthumb 5.04589 46.2886
rfemur -7.61944 -11.3704 25.193
rtibia 42.8556
rfoot -15.3754 -24.6247
rtoes -27.4734
lfemur -27.4341 -1.58366 -18.3854
ltibia 44.4306
lfoot -8.74285 2.50344
ltoes 10.8976
237
root 21.559 17.4881 -42.0411 -182.47 19.1561 -174.677
lowerback 7.38937 1.52917 1.5278
upperback -1.2903 2.33612 2.01603
thorax -5.51611 1.1571 0.95702
lowerneck -17.7068 1.71375 2.41354
upperneck 25.565 4.60658 -6.59442
head 11.4827 1.86628 -2.06635
rclavicle -5.70823e-014 -1.15295e-014
rhumerus -22.7955 9.26559 -74.5685
rradius 93.7028
rwrist -6.77496
rhand -28.0732 6.74429
rfingers 7.12502
rthumb -1.45662 -23.2305
lclavicle -5.70823e-014 -1.15295e-014
lhumerus -52.05 33.2827 45.1602
lradius 24.4009
lwrist -16.8072
lhand -21.2067 16.2115
lfingers 7.12502
lthumb 5.17477 46.1283
rfemur -7.58341 -11.6909 24.5736
rtibia 43.9224
rfoot -15.2783 -24.713
rtoes -27.9796
lfemur -27.0642 -1.60798 -18.9765
ltibia 44.6401
lfoot -9.10557 2.04699
ltoes 10.7089
238
root 21.6074 17.4834 -42.1362 -182.766 18.6357 -175.115
lowerback 7.48105 1.60811 1.1056
upperback -1.19649 2.38277 1.83132
thorax -5.47857 1.18676 0.994736
lowerneck -17.5625 1.93437 2.58518
upperneck 25.8514 5.0194 -6.77958
head 11.5971 2.06959 -2.10092
rclavicle -1.53685e-014 2.88238e-015
rhumerus -22.8093 8.87249 -74.5809
rradius 93.4687
rwrist -6.40536
rhand -28.0846 6.80011
rfingers 7.12502
rthumb -1.46759 -23.1746
lclavicle -1.53685e-014 2.88238e-015
lhumerus -51.8705 33.3847 44.6607
lradius 24.1817
lwrist -17.6441
lhand -21.0436 16.0766
lfingers 7.12502
lthumb 5.33226 45.9895
rfemur -7.58738 -11.981 24.0213
rtibia 44.9926
rfoot -15.0464 -24.7956
rtoes -28.4793
lfemur -26.6704 -1.64076 -19.5004
ltibia 44.7843
lfoot -9.45355 1.6475
ltoes 10.6414
239
root 21.6534 17.4828 -42.2334 -183.006 18.1286 -175.477
lowerback 7.49407 1.69 0.797628
upperback -1.0987 2.44524 1.65939
thorax -5.38893 1.22181 0.982203
lowerneck -17.3668 2.16011 2.69928
upperneck 26.1134 5.44851 -6.91549
head 11.6919 2.28338 -2.10449
rclavicle 3.11036e-014 -7.35503e-015
rhumerus -22.9239 8.38825 -74.671
rradius 93.2155
rwrist -5.99242
rhand -28.1025 6.84358
rfingers 7.12502
rthumb -1.4849 -23.131
lclavicle 3.11036e-014 -7.35503e-015
lhumerus -51.6056 33.4852 44.3067
lradius 23.9942
lwrist -18.5288
lhand -20.8578 15.983
lfingers 7.12502
lthumb 5.51166 45.8913
rfemur -7.61842 -12.27 23.5348
rtibia 46.041
rfoot -14.6904 -24.8435
rtoes -28.9592
lfemur -26.2518 -1.6849 -19.95
ltibia 44.8763
lfoot -9.82114 1.25364
ltoes 10.6613
